<svg width="63" height="19" viewBox="0 0 63 19" fill="none" xmlns="http://www.w3.org/2000/svg">
<path d="M13.8122 14.832V18H1.11622V15.48L7.59622 9.36C8.28422 8.704 8.74822 8.144 8.98822 7.68C9.22822 7.2 9.34822 6.728 9.34822 6.264C9.34822 5.592 9.11622 5.08 8.65222 4.728C8.20422 4.36 7.54022 4.176 6.66022 4.176C5.92422 4.176 5.26022 4.32 4.66822 4.608C4.07622 4.88 3.58022 5.296 3.18022 5.856L0.348219 4.032C1.00422 3.056 1.90822 2.296 3.06022 1.752C4.21222 1.192 5.53222 0.912 7.02022 0.912C8.26822 0.912 9.35622 1.12 10.2842 1.536C11.2282 1.936 11.9562 2.512 12.4682 3.264C12.9962 4 13.2602 4.872 13.2602 5.88C13.2602 6.792 13.0682 7.648 12.6842 8.448C12.3002 9.248 11.5562 10.16 10.4522 11.184L6.58822 14.832H13.8122ZM21.1765 7.512C23.5445 7.512 25.2885 7.984 26.4085 8.928C27.5445 9.872 28.1125 11.136 28.1125 12.72C28.1125 13.744 27.8565 14.68 27.3445 15.528C26.8325 16.36 26.0485 17.032 24.9925 17.544C23.9525 18.04 22.6645 18.288 21.1285 18.288C19.9445 18.288 18.7765 18.136 17.6245 17.832C16.4885 17.512 15.5205 17.064 14.7205 16.488L16.2565 13.512C16.8965 13.992 17.6325 14.368 18.4645 14.64C19.2965 14.896 20.1525 15.024 21.0325 15.024C22.0085 15.024 22.7765 14.832 23.3365 14.448C23.8965 14.064 24.1765 13.528 24.1765 12.84C24.1765 12.12 23.8805 11.576 23.2885 11.208C22.7125 10.84 21.7045 10.656 20.2645 10.656H15.9685L16.8325 1.2H27.0805V4.32H20.0725L19.8085 7.512H21.1765ZM36.8899 18.288C35.4979 18.288 34.2579 17.944 33.1699 17.256C32.0819 16.568 31.2259 15.576 30.6019 14.28C29.9939 12.968 29.6899 11.408 29.6899 9.6C29.6899 7.792 29.9939 6.24 30.6019 4.944C31.2259 3.632 32.0819 2.632 33.1699 1.944C34.2579 1.256 35.4979 0.912 36.8899 0.912C38.2819 0.912 39.5219 1.256 40.6099 1.944C41.6979 2.632 42.5459 3.632 43.1539 4.944C43.7779 6.24 44.0899 7.792 44.0899 9.6C44.0899 11.408 43.7779 12.968 43.1539 14.28C42.5459 15.576 41.6979 16.568 40.6099 17.256C39.5219 17.944 38.2819 18.288 36.8899 18.288ZM36.8899 15C37.9139 15 38.7139 14.56 39.2899 13.68C39.8819 12.8 40.1779 11.44 40.1779 9.6C40.1779 7.76 39.8819 6.4 39.2899 5.52C38.7139 4.64 37.9139 4.2 36.8899 4.2C35.8819 4.2 35.0819 4.64 34.4899 5.52C33.9139 6.4 33.6259 7.76 33.6259 9.6C33.6259 11.44 33.9139 12.8 34.4899 13.68C35.0819 14.56 35.8819 15 36.8899 15ZM52.003 12.504V13.848H57.187V15.84H52.003V18H48.091V15.84H45.763V13.848H48.091V1.2H55.363C57.651 1.2 59.435 1.68 60.715 2.64C62.011 3.6 62.659 5.008 62.659 6.864C62.659 8.704 62.011 10.104 60.715 11.064C59.435 12.024 57.651 12.504 55.363 12.504H52.003ZM58.723 6.888C58.723 6.072 58.427 5.448 57.835 5.016C57.259 4.584 56.427 4.368 55.339 4.368H52.003V9.456H55.339C56.427 9.456 57.259 9.24 57.835 8.808C58.427 8.36 58.723 7.72 58.723 6.888Z" fill="#0C1417"/>
</svg>
