<svg width="65" height="19" viewBox="0 0 65 19" fill="none" xmlns="http://www.w3.org/2000/svg">
<path d="M9.07697 8.04C10.549 8.28 11.677 8.832 12.461 9.696C13.245 10.544 13.637 11.6 13.637 12.864C13.637 13.84 13.381 14.744 12.869 15.576C12.357 16.392 11.573 17.048 10.517 17.544C9.47697 18.04 8.19697 18.288 6.67697 18.288C5.49297 18.288 4.32497 18.136 3.17297 17.832C2.03697 17.512 1.06897 17.064 0.268969 16.488L1.78097 13.512C2.42097 13.992 3.15697 14.368 3.98897 14.64C4.83697 14.896 5.70097 15.024 6.58097 15.024C7.55697 15.024 8.32497 14.84 8.88497 14.472C9.44497 14.088 9.72497 13.552 9.72497 12.864C9.72497 11.488 8.67697 10.8 6.58097 10.8H4.80497V8.232L8.26097 4.32H1.10897V1.2H12.869V3.72L9.07697 8.04ZM22.6321 18.288C21.2401 18.288 20.0001 17.944 18.9121 17.256C17.8241 16.568 16.9681 15.576 16.3441 14.28C15.7361 12.968 15.4321 11.408 15.4321 9.6C15.4321 7.792 15.7361 6.24 16.3441 4.944C16.9681 3.632 17.8241 2.632 18.9121 1.944C20.0001 1.256 21.2401 0.912 22.6321 0.912C24.0241 0.912 25.2641 1.256 26.3521 1.944C27.4401 2.632 28.2881 3.632 28.8961 4.944C29.5201 6.24 29.8321 7.792 29.8321 9.6C29.8321 11.408 29.5201 12.968 28.8961 14.28C28.2881 15.576 27.4401 16.568 26.3521 17.256C25.2641 17.944 24.0241 18.288 22.6321 18.288ZM22.6321 15C23.6561 15 24.4561 14.56 25.0321 13.68C25.6241 12.8 25.9201 11.44 25.9201 9.6C25.9201 7.76 25.6241 6.4 25.0321 5.52C24.4561 4.64 23.6561 4.2 22.6321 4.2C21.6241 4.2 20.8241 4.64 20.2321 5.52C19.6561 6.4 19.3681 7.76 19.3681 9.6C19.3681 11.44 19.6561 12.8 20.2321 13.68C20.8241 14.56 21.6241 15 22.6321 15ZM38.9212 18.288C37.5292 18.288 36.2892 17.944 35.2012 17.256C34.1132 16.568 33.2572 15.576 32.6332 14.28C32.0252 12.968 31.7212 11.408 31.7212 9.6C31.7212 7.792 32.0252 6.24 32.6332 4.944C33.2572 3.632 34.1132 2.632 35.2012 1.944C36.2892 1.256 37.5292 0.912 38.9212 0.912C40.3132 0.912 41.5532 1.256 42.6412 1.944C43.7292 2.632 44.5772 3.632 45.1852 4.944C45.8092 6.24 46.1212 7.792 46.1212 9.6C46.1212 11.408 45.8092 12.968 45.1852 14.28C44.5772 15.576 43.7292 16.568 42.6412 17.256C41.5532 17.944 40.3132 18.288 38.9212 18.288ZM38.9212 15C39.9452 15 40.7452 14.56 41.3212 13.68C41.9132 12.8 42.2092 11.44 42.2092 9.6C42.2092 7.76 41.9132 6.4 41.3212 5.52C40.7452 4.64 39.9452 4.2 38.9212 4.2C37.9132 4.2 37.1132 4.64 36.5212 5.52C35.9452 6.4 35.6572 7.76 35.6572 9.6C35.6572 11.44 35.9452 12.8 36.5212 13.68C37.1132 14.56 37.9132 15 38.9212 15ZM54.0342 12.504V13.848H59.2182V15.84H54.0342V18H50.1222V15.84H47.7942V13.848H50.1222V1.2H57.3942C59.6822 1.2 61.4662 1.68 62.7462 2.64C64.0422 3.6 64.6902 5.008 64.6902 6.864C64.6902 8.704 64.0422 10.104 62.7462 11.064C61.4662 12.024 59.6822 12.504 57.3942 12.504H54.0342ZM60.7542 6.888C60.7542 6.072 60.4582 5.448 59.8662 5.016C59.2902 4.584 58.4582 4.368 57.3702 4.368H54.0342V9.456H57.3702C58.4582 9.456 59.2902 9.24 59.8662 8.808C60.4582 8.36 60.7542 7.72 60.7542 6.888Z" fill="#0C1417"/>
</svg>
