<svg width="65" height="19" viewBox="0 0 65 19" fill="none" xmlns="http://www.w3.org/2000/svg">
<path d="M14.2755 1.2V3.72L8.0355 18H3.8115L9.8355 4.368H4.2675V7.104H0.8115V1.2H14.2755ZM22.7376 18.288C21.3456 18.288 20.1056 17.944 19.0176 17.256C17.9296 16.568 17.0736 15.576 16.4496 14.28C15.8416 12.968 15.5376 11.408 15.5376 9.6C15.5376 7.792 15.8416 6.24 16.4496 4.944C17.0736 3.632 17.9296 2.632 19.0176 1.944C20.1056 1.256 21.3456 0.912 22.7376 0.912C24.1296 0.912 25.3696 1.256 26.4576 1.944C27.5456 2.632 28.3936 3.632 29.0016 4.944C29.6256 6.24 29.9376 7.792 29.9376 9.6C29.9376 11.408 29.6256 12.968 29.0016 14.28C28.3936 15.576 27.5456 16.568 26.4576 17.256C25.3696 17.944 24.1296 18.288 22.7376 18.288ZM22.7376 15C23.7616 15 24.5616 14.56 25.1376 13.68C25.7296 12.8 26.0256 11.44 26.0256 9.6C26.0256 7.76 25.7296 6.4 25.1376 5.52C24.5616 4.64 23.7616 4.2 22.7376 4.2C21.7296 4.2 20.9296 4.64 20.3376 5.52C19.7616 6.4 19.4736 7.76 19.4736 9.6C19.4736 11.44 19.7616 12.8 20.3376 13.68C20.9296 14.56 21.7296 15 22.7376 15ZM39.0266 18.288C37.6346 18.288 36.3946 17.944 35.3066 17.256C34.2186 16.568 33.3626 15.576 32.7386 14.28C32.1306 12.968 31.8266 11.408 31.8266 9.6C31.8266 7.792 32.1306 6.24 32.7386 4.944C33.3626 3.632 34.2186 2.632 35.3066 1.944C36.3946 1.256 37.6346 0.912 39.0266 0.912C40.4186 0.912 41.6586 1.256 42.7466 1.944C43.8346 2.632 44.6826 3.632 45.2906 4.944C45.9146 6.24 46.2266 7.792 46.2266 9.6C46.2266 11.408 45.9146 12.968 45.2906 14.28C44.6826 15.576 43.8346 16.568 42.7466 17.256C41.6586 17.944 40.4186 18.288 39.0266 18.288ZM39.0266 15C40.0506 15 40.8506 14.56 41.4266 13.68C42.0186 12.8 42.3146 11.44 42.3146 9.6C42.3146 7.76 42.0186 6.4 41.4266 5.52C40.8506 4.64 40.0506 4.2 39.0266 4.2C38.0186 4.2 37.2186 4.64 36.6266 5.52C36.0506 6.4 35.7626 7.76 35.7626 9.6C35.7626 11.44 36.0506 12.8 36.6266 13.68C37.2186 14.56 38.0186 15 39.0266 15ZM54.1397 12.504V13.848H59.3237V15.84H54.1397V18H50.2277V15.84H47.8997V13.848H50.2277V1.2H57.4997C59.7877 1.2 61.5717 1.68 62.8517 2.64C64.1477 3.6 64.7957 5.008 64.7957 6.864C64.7957 8.704 64.1477 10.104 62.8517 11.064C61.5717 12.024 59.7877 12.504 57.4997 12.504H54.1397ZM60.8597 6.888C60.8597 6.072 60.5637 5.448 59.9717 5.016C59.3957 4.584 58.5637 4.368 57.4757 4.368H54.1397V9.456H57.4757C58.5637 9.456 59.3957 9.24 59.9717 8.808C60.5637 8.36 60.8597 7.72 60.8597 6.888Z" fill="#0C1417"/>
</svg>
