<svg width="228" height="58" viewBox="0 0 228 58" fill="none" xmlns="http://www.w3.org/2000/svg">
<g filter="url(#filter0_dd_406_387)">
<path d="M22.0328 0H224L205.967 50H4L22.0328 0Z" fill="#F7931E"/>
<path d="M4.71185 49.5L22.384 0.5H223.288L205.616 49.5H4.71185Z" stroke="#F7931E"/>
</g>
<path d="M96.5509 19.8L91.7829 28.664C91.3242 29.5173 90.7695 30.1627 90.1189 30.6C89.4789 31.0373 88.7802 31.256 88.0229 31.256C87.4362 31.256 86.8282 31.128 86.1989 30.872L86.8229 28.904C87.2709 29.0427 87.6442 29.112 87.9429 29.112C88.2629 29.112 88.5509 29.0373 88.8069 28.888C89.0629 28.728 89.2975 28.4827 89.5109 28.152L89.6069 28.024L85.1909 19.8H87.9589L90.9349 25.816L94.0069 19.8H96.5509ZM102.706 26.52C103.218 26.68 103.613 26.9253 103.89 27.256C104.178 27.5867 104.322 27.9813 104.322 28.44C104.322 28.984 104.135 29.464 103.762 29.88C103.389 30.2853 102.877 30.6 102.226 30.824C101.575 31.048 100.839 31.16 100.018 31.16C99.3459 31.16 98.6845 31.0907 98.0339 30.952C97.3832 30.8133 96.7805 30.6053 96.2259 30.328L96.8979 28.584C97.8045 29.0213 98.8072 29.24 99.9059 29.24C100.493 29.24 100.951 29.1547 101.282 28.984C101.623 28.8027 101.794 28.552 101.794 28.232C101.794 27.9547 101.677 27.7467 101.442 27.608C101.207 27.4587 100.866 27.384 100.418 27.384H98.6579V25.832H100.194C100.631 25.832 100.967 25.7627 101.202 25.624C101.437 25.4853 101.554 25.2827 101.554 25.016C101.554 24.7387 101.405 24.5253 101.106 24.376C100.818 24.2267 100.402 24.152 99.8579 24.152C99.0259 24.152 98.1192 24.3493 97.1379 24.744L96.5299 23.016C97.7245 22.4933 98.8872 22.232 100.018 22.232C100.797 22.232 101.49 22.328 102.098 22.52C102.717 22.712 103.202 22.9947 103.554 23.368C103.906 23.7307 104.082 24.1573 104.082 24.648C104.082 25.0533 103.959 25.4213 103.714 25.752C103.469 26.072 103.133 26.328 102.706 26.52ZM106.138 22.392H108.618V25.752H112.362V22.392H114.858V31H112.362V27.784H108.618V31H106.138V22.392ZM120.591 22.264C121.924 22.264 122.948 22.584 123.663 23.224C124.378 23.8533 124.735 24.808 124.735 26.088V31H122.399V29.928C121.93 30.728 121.055 31.128 119.775 31.128C119.114 31.128 118.538 31.016 118.047 30.792C117.567 30.568 117.199 30.2587 116.943 29.864C116.687 29.4693 116.559 29.0213 116.559 28.52C116.559 27.72 116.858 27.0907 117.455 26.632C118.063 26.1733 118.996 25.944 120.255 25.944H122.239C122.239 25.4 122.074 24.984 121.743 24.696C121.412 24.3973 120.916 24.248 120.255 24.248C119.796 24.248 119.343 24.3227 118.895 24.472C118.458 24.6107 118.084 24.8027 117.775 25.048L116.879 23.304C117.348 22.9733 117.908 22.7173 118.559 22.536C119.22 22.3547 119.898 22.264 120.591 22.264ZM120.399 29.448C120.826 29.448 121.204 29.352 121.535 29.16C121.866 28.9573 122.1 28.664 122.239 28.28V27.4H120.527C119.503 27.4 118.991 27.736 118.991 28.408C118.991 28.728 119.114 28.984 119.359 29.176C119.615 29.3573 119.962 29.448 120.399 29.448ZM134.135 24.44H131.223V31H128.743V24.44H125.831V22.392H134.135V24.44ZM140.122 25.144C141.242 25.1547 142.1 25.4107 142.698 25.912C143.295 26.4027 143.594 27.1013 143.594 28.008C143.594 28.9573 143.258 29.6987 142.586 30.232C141.924 30.7547 140.991 31.016 139.786 31.016L135.466 31V22.392H137.946V25.144H140.122ZM139.562 29.24C140.042 29.2507 140.41 29.1493 140.666 28.936C140.922 28.7227 141.05 28.4027 141.05 27.976C141.05 27.56 140.922 27.256 140.666 27.064C140.42 26.872 140.052 26.7707 139.562 26.76L137.946 26.744V29.24H139.562Z" fill="white"/>
<defs>
<filter id="filter0_dd_406_387" x="0" y="0" width="228" height="58" filterUnits="userSpaceOnUse" color-interpolation-filters="sRGB">
<feFlood flood-opacity="0" result="BackgroundImageFix"/>
<feColorMatrix in="SourceAlpha" type="matrix" values="0 0 0 0 0 0 0 0 0 0 0 0 0 0 0 0 0 0 127 0" result="hardAlpha"/>
<feOffset dy="4"/>
<feGaussianBlur stdDeviation="2"/>
<feComposite in2="hardAlpha" operator="out"/>
<feColorMatrix type="matrix" values="0 0 0 0 0 0 0 0 0 0 0 0 0 0 0 0 0 0 0.25 0"/>
<feBlend mode="normal" in2="BackgroundImageFix" result="effect1_dropShadow_406_387"/>
<feColorMatrix in="SourceAlpha" type="matrix" values="0 0 0 0 0 0 0 0 0 0 0 0 0 0 0 0 0 0 127 0" result="hardAlpha"/>
<feOffset dy="4"/>
<feGaussianBlur stdDeviation="2"/>
<feComposite in2="hardAlpha" operator="out"/>
<feColorMatrix type="matrix" values="0 0 0 0 0 0 0 0 0 0 0 0 0 0 0 0 0 0 0.25 0"/>
<feBlend mode="normal" in2="effect1_dropShadow_406_387" result="effect2_dropShadow_406_387"/>
<feBlend mode="normal" in="SourceGraphic" in2="effect2_dropShadow_406_387" result="shape"/>
</filter>
</defs>
</svg>
