<svg width="220" height="50" viewBox="0 0 220 50" fill="none" xmlns="http://www.w3.org/2000/svg">
<path d="M0.711852 49.5L18.384 0.5H219.288L201.616 49.5H0.711852Z" stroke="#F7931E"/>
<path d="M92.5509 19.8L87.7829 28.664C87.3242 29.5173 86.7695 30.1627 86.1189 30.6C85.4789 31.0373 84.7802 31.256 84.0229 31.256C83.4362 31.256 82.8282 31.128 82.1989 30.872L82.8229 28.904C83.2709 29.0427 83.6442 29.112 83.9429 29.112C84.2629 29.112 84.5509 29.0373 84.8069 28.888C85.0629 28.728 85.2975 28.4827 85.5109 28.152L85.6069 28.024L81.1909 19.8H83.9589L86.9349 25.816L90.0069 19.8H92.5509ZM98.7059 26.52C99.2179 26.68 99.6125 26.9253 99.8899 27.256C100.178 27.5867 100.322 27.9813 100.322 28.44C100.322 28.984 100.135 29.464 99.7619 29.88C99.3885 30.2853 98.8765 30.6 98.2259 30.824C97.5752 31.048 96.8392 31.16 96.0179 31.16C95.3459 31.16 94.6845 31.0907 94.0339 30.952C93.3832 30.8133 92.7805 30.6053 92.2259 30.328L92.8979 28.584C93.8045 29.0213 94.8072 29.24 95.9059 29.24C96.4925 29.24 96.9512 29.1547 97.2819 28.984C97.6232 28.8027 97.7939 28.552 97.7939 28.232C97.7939 27.9547 97.6765 27.7467 97.4419 27.608C97.2072 27.4587 96.8659 27.384 96.4179 27.384H94.6579V25.832H96.1939C96.6312 25.832 96.9672 25.7627 97.2019 25.624C97.4365 25.4853 97.5539 25.2827 97.5539 25.016C97.5539 24.7387 97.4045 24.5253 97.1059 24.376C96.8179 24.2267 96.4019 24.152 95.8579 24.152C95.0259 24.152 94.1192 24.3493 93.1379 24.744L92.5299 23.016C93.7245 22.4933 94.8872 22.232 96.0179 22.232C96.7965 22.232 97.4899 22.328 98.0979 22.52C98.7165 22.712 99.2019 22.9947 99.5539 23.368C99.9059 23.7307 100.082 24.1573 100.082 24.648C100.082 25.0533 99.9592 25.4213 99.7139 25.752C99.4685 26.072 99.1325 26.328 98.7059 26.52ZM102.138 22.392H104.618V25.752H108.362V22.392H110.858V31H108.362V27.784H104.618V31H102.138V22.392ZM116.591 22.264C117.924 22.264 118.948 22.584 119.663 23.224C120.378 23.8533 120.735 24.808 120.735 26.088V31H118.399V29.928C117.93 30.728 117.055 31.128 115.775 31.128C115.114 31.128 114.538 31.016 114.047 30.792C113.567 30.568 113.199 30.2587 112.943 29.864C112.687 29.4693 112.559 29.0213 112.559 28.52C112.559 27.72 112.858 27.0907 113.455 26.632C114.063 26.1733 114.996 25.944 116.255 25.944H118.239C118.239 25.4 118.074 24.984 117.743 24.696C117.412 24.3973 116.916 24.248 116.255 24.248C115.796 24.248 115.343 24.3227 114.895 24.472C114.458 24.6107 114.084 24.8027 113.775 25.048L112.879 23.304C113.348 22.9733 113.908 22.7173 114.559 22.536C115.22 22.3547 115.898 22.264 116.591 22.264ZM116.399 29.448C116.826 29.448 117.204 29.352 117.535 29.16C117.866 28.9573 118.1 28.664 118.239 28.28V27.4H116.527C115.503 27.4 114.991 27.736 114.991 28.408C114.991 28.728 115.114 28.984 115.359 29.176C115.615 29.3573 115.962 29.448 116.399 29.448ZM130.135 24.44H127.223V31H124.743V24.44H121.831V22.392H130.135V24.44ZM136.122 25.144C137.242 25.1547 138.1 25.4107 138.698 25.912C139.295 26.4027 139.594 27.1013 139.594 28.008C139.594 28.9573 139.258 29.6987 138.586 30.232C137.924 30.7547 136.991 31.016 135.786 31.016L131.466 31V22.392H133.946V25.144H136.122ZM135.562 29.24C136.042 29.2507 136.41 29.1493 136.666 28.936C136.922 28.7227 137.05 28.4027 137.05 27.976C137.05 27.56 136.922 27.256 136.666 27.064C136.42 26.872 136.052 26.7707 135.562 26.76L133.946 26.744V29.24H135.562Z" fill="#F7931E"/>
</svg>
